<svg width="100" height="100" viewBox="0 0 100 100" fill="none" xmlns="http://www.w3.org/2000/svg">
<path fill-rule="evenodd" clip-rule="evenodd" d="M50.7841 0.230157C60.6977 0.669529 70.8759 1.5202 78.9498 7.19339C87.0605 12.8925 91.3828 22.0446 94.8884 31.2205C98.5518 40.8092 101.19 50.76 99.4529 60.8595C97.5081 72.1643 93.6525 83.847 84.5933 91.0659C75.3244 98.4518 62.6314 101.026 50.7841 99.6413C39.6936 98.3454 29.4092 92.3018 22.3493 83.7926C16.197 76.3772 18.7712 65.5781 15.1525 56.6944C11.1061 46.7611 -1.06134 39.7523 0.0744916 29.1102C1.22825 18.3002 11.1455 10.0601 20.7112 4.61224C29.7002 -0.507157 40.4067 -0.229775 50.7841 0.230157Z" fill="#C4C4C4"/>
</svg>
