<svg width="100" height="100" viewBox="0 0 100 100" fill="none" xmlns="http://www.w3.org/2000/svg">
<path fill-rule="evenodd" clip-rule="evenodd" d="M47.6845 0.820792C57.8312 2.21574 65.9096 9.5486 74.5227 15.7811C83.7903 22.4873 97.4811 26.2741 99.7139 38.4698C101.975 50.8225 90.2594 60.3113 84.6735 71.226C80.4944 79.3917 78.0658 88.9225 71.1758 94.2321C64.3994 99.4543 55.8437 100.615 47.6845 99.7309C40.0806 98.9069 34.1505 93.1749 27.2472 89.4716C18.235 84.637 5.34967 84.9763 1.1178 74.7503C-3.06639 64.6394 5.67406 53.8657 8.02464 43.0215C10.6411 30.9508 7.65585 16.1987 15.6542 7.68797C23.7721 -0.950018 36.6267 -0.699423 47.6845 0.820792Z" fill="#C4C4C4"/>
</svg>
