<svg width="100" height="100" viewBox="0 0 100 100" fill="none" xmlns="http://www.w3.org/2000/svg">
<path fill-rule="evenodd" clip-rule="evenodd" d="M57.7929 8.14554C66.7977 9.99902 76.648 9.07382 83.9941 14.1446C91.2575 19.1583 94.3468 27.3643 97.0753 35.261C99.7752 43.0751 100.634 50.9935 99.5344 59.1209C98.1923 69.042 97.5593 79.7531 90.0647 87.0859C81.8772 95.0969 69.8262 100.509 57.7929 99.962C45.9687 99.4244 35.8471 92.117 27.7909 84.2544C20.7873 77.419 20.2857 67.6135 15.9709 59.1446C10.8072 49.0096 -0.950126 40.9538 0.0613539 29.8281C1.12771 18.0988 9.24008 5.73256 21.2364 1.22702C33.0249 -3.20045 45.3492 5.58422 57.7929 8.14554Z" fill="#C4C4C4"/>
</svg>
