<svg width="100" height="100" viewBox="0 0 100 100" fill="none" xmlns="http://www.w3.org/2000/svg">
<path fill-rule="evenodd" clip-rule="evenodd" d="M48.5075 4.1094C62.1105 2.29009 77.6972 -3.81163 88.7527 3.52763C99.8128 10.87 98.9842 25.9208 99.9136 38.2358C100.652 48.0135 96.5031 56.9115 93.4924 66.332C90.3422 76.1889 90.7964 88.0168 81.9343 94.493C72.9702 101.044 59.9845 100.462 48.5075 99.2061C38.0775 98.0651 28.3726 94.0393 20.5215 87.775C13.2209 81.9499 9.69673 73.7405 6.29378 65.5243C2.73162 56.9237 -1.29975 48.2451 0.40208 39.1979C2.27452 29.2438 7.39758 19.6091 16.1287 13.2406C25.1271 6.67705 37.0368 5.64352 48.5075 4.1094Z" fill="#C4C4C4"/>
</svg>
