<svg width="100" height="100" viewBox="0 0 100 100" fill="none" xmlns="http://www.w3.org/2000/svg">
<path fill-rule="evenodd" clip-rule="evenodd" d="M49.8483 0.603104C57.7254 1.34548 64.7302 4.5352 72.0188 7.92353C81.8333 12.4861 96.9533 12.3867 99.6864 23.772C102.468 35.3619 85.905 42.058 82.9848 53.6062C79.8306 66.0801 89.8659 81.3935 82.5574 91.5114C75.4119 101.404 61.2672 100.322 49.8483 99.4802C39.0108 98.6811 28.8724 94.0877 20.1597 86.9108C11.5294 79.8017 3.73608 70.769 1.01119 59.2515C-1.63467 48.068 1.25521 36.2787 5.70651 25.8202C9.74851 16.3234 16.3239 8.28436 24.7531 3.46895C32.4131 -0.906989 41.2589 -0.206403 49.8483 0.603104Z" fill="#C4C4C4"/>
</svg>
