<svg width="100" height="100" viewBox="0 0 100 100" fill="none" xmlns="http://www.w3.org/2000/svg">
<path fill-rule="evenodd" clip-rule="evenodd" d="M52.5616 1.05626C64.6583 0.513218 78.5175 -2.5156 87.7611 5.03785C96.9478 12.5447 95.4872 26.2692 97.4469 37.7343C99.0839 47.3122 101.849 57.0875 98.2039 66.1344C94.6629 74.9234 85.85 80.0148 78.0998 85.7542C70.1123 91.6693 62.6066 99.3013 52.5616 99.9349C42.2547 100.585 31.64 96.3227 24.4782 89.1365C17.8244 82.46 19.8838 71.7615 16.0282 63.2768C11.4887 53.2869 -0.686653 46.2228 0.0303648 35.3356C0.775686 24.0187 9.93179 14.4447 19.6625 8.09493C29.2022 1.86977 41.0599 1.5726 52.5616 1.05626Z" fill="#C4C4C4"/>
</svg>
