<svg width="100" height="100" viewBox="0 0 100 100" fill="none" xmlns="http://www.w3.org/2000/svg">
<path fill-rule="evenodd" clip-rule="evenodd" d="M50.3391 0.0424737C61.472 0.903899 63.5849 15.9442 72.3722 22.3011C80.6051 28.2569 96.019 26.4284 99.4213 35.5492C102.811 44.6355 90.3541 52.1243 86.8758 61.182C83.5399 69.8686 86.1043 80.3301 79.5514 87.2906C72.3191 94.9726 61.3726 99.7318 50.3391 99.9908C39.1686 100.253 28.96 94.8708 20.0251 88.6879C11.2105 82.5883 1.67897 75.3267 0.158963 65.2666C-1.30862 55.5534 7.74548 47.6883 12.5051 38.9167C16.4015 31.7358 19.6256 24.6469 25.4428 18.6699C32.7589 11.1526 39.4192 -0.802475 50.3391 0.0424737Z" fill="#C4C4C4"/>
</svg>
