<svg width="100" height="100" viewBox="0 0 100 100" fill="none" xmlns="http://www.w3.org/2000/svg">
<path fill-rule="evenodd" clip-rule="evenodd" d="M52.0068 0.732943C63.1229 1.56201 74.7795 3.08965 83.0743 9.98609C90.9972 16.5733 92.3044 27.0818 95.1277 36.5843C97.8036 45.5908 101.882 54.7216 99.0275 63.6811C96.1354 72.7588 87.6123 78.8188 79.7447 84.8672C71.3065 91.3542 62.8397 101.435 52.0068 99.8291C40.9992 98.1971 38.6422 84.0763 30.0545 77.4999C22.3495 71.5995 10.1004 71.5994 4.8549 63.7205C-0.87878 55.1083 -0.773614 44.2346 1.29528 34.3026C3.57934 23.3376 7.25741 11.5615 17.0735 5.06357C26.8677 -1.41995 40.0025 -0.162369 52.0068 0.732943Z" fill="#C4C4C4"/>
</svg>
